<svg xmlns="http://www.w3.org/2000/svg" width="270" height="150">
  <defs>
    <style>
      path {
        vector-effect: non-scaling-stroke;
      }
    </style>
  </defs>
  <g opacity=".4">
    <path
      fill="none"
      stroke="#101828"
      d="M-181.8-152.5h31.8l31.7.1h63.4l31.7.1h63.4l31.6.1H135l31.6.1h63.1l31.5.1h63l31.4.1h62.9l31.4.1m-598 46.1 28.4.1H50.2l28.3.1h141.1l28.2.1h140.7l28.1.1m-537.5 37.5h434.3l25.4.1h50.9m-488.1 31h465.8m-447 26.2H49.3l21.4-.1h278.1M-63.6 11.7H95.3l19.9-.1h178.1l19.8-.1h19.8M-49.8 30.9h74l18.5-.1h110.7l18.5-.1h128.9l18.4-.1m-357 17h17.3l17.3-.1h103.7l17.2-.1h103.5l17.2-.1h68.8M-27.3 62.2h65l16.2-.1H135l16.2-.1h80.9l16.2-.1h48.5M-17.9 75.2h15.3l15.3-.1h76.5l15.2-.1h61.1l15.3-.1H257l15.3-.1h15.2M-9.6 86.7h43.4l14.5-.1h72.3l14.4-.1h72.2l14.4-.1h57.6M-2.2 97.1h13.8l13.7-.1h68.6l13.7-.1h54.8l13.7-.1h68.4l13.7-.1h13.6M4.5 106.4h39.2l13.1-.1H122l13-.1h52.1l13-.1h65m-254.5 8.8h24.9l12.5-.1h49.7l12.5-.1h49.6l12.5-.1h62l12.4-.1h12.4m-242.9 8.1H40l11.9-.1h59.4l11.8-.1h47.5l11.8-.1h59.3l11.8-.1m-232.2 7.5 11.4-.1h45.5l11.3-.1h56.9l11.3-.1h45.4l11.4-.1h34m-222.6 6.8h43.7l10.9-.1h43.6l10.9-.1h54.5l10.8-.1h43.5m-213.6 6.3h21l10.5-.1h52.4l10.4-.1h41.9l10.5-.1h52.2l10.5-.1m-205.4 5.9h30.3l10-.1h50.4l10.1-.1h40.3l10-.1h50.3"
      vector-effect="non-scaling-stroke"
    />
    <path
      fill="none"
      stroke="#101828"
      d="m-197.9-211.9 39.6 59.4 31.2 46.8 25.2 37.9 20.8 31.1 17.4 26.2 14.8 22.2 12.8 19.2L-25 47.6l9.8 14.6 8.6 13 7.7 11.5L8 97.1l6.2 9.3 5.7 8.5 5.1 7.7 4.7 7 4.3 6.5 4 6 3.7 5.5 3.4 5.1m-216.3-364.6 36.5 59.5 28.6 46.8 23.2 37.8 19.1 31.1 16 26.2 13.7 22.2 11.7 19.2 10.2 16.7 9 14.6 7.9 12.9 7.1 11.6 6.4 10.4 5.7 9.3 5.2 8.5 4.7 7.7 4.3 7 4 6.5 3.7 6 3.3 5.5 3.2 5.1m-196.8-364.5 33.3 59.4 26.1 46.8 21.2 37.8 17.4 31.1 14.7 26.2 12.4 22.2 10.7 19.2L.6 47.5l8.2 14.7 7.3 12.9 6.4 11.6L28.3 97l5.3 9.4 4.7 8.4 4.3 7.8 4 7 3.6 6.5 3.3 6 3.1 5.5 2.9 5.1m-177.3-364.5 30.1 59.4 23.6 46.8 19.2 37.8 15.7 31.1 13.3 26.2 11.2 22.2L5 30.9l8.5 16.6 7.4 14.7 6.5 12.9 5.9 11.6L38.5 97l4.7 9.4 4.3 8.4 3.9 7.7 3.6 7.1 3.3 6.5 3 5.9 2.8 5.6 2.6 5.1M-91.1-211.7l26.9 59.3 21.1 46.8L-26-67.8l14.1 31.1L0-10.5l10 22.2 8.7 19.2 7.6 16.6 6.6 14.7 5.9 12.9L44 86.7 48.7 97l4.2 9.4 3.8 8.4 3.5 7.7 3.2 7.1 3 6.5 2.7 5.9 2.5 5.5 2.3 5.2M-64.5-211.7l23.7 59.4 18.7 46.7L-7-67.8 5.4-36.7l10.5 26.2 8.9 22.2 7.6 19.1 6.7 16.7 5.8 14.6 5.2 13 4.6 11.5L58.8 97l3.8 9.3 3.3 8.5 3.1 7.7 2.8 7.1 2.6 6.5 2.4 5.9 2.2 5.5 2.1 5.1M-37.8-211.7l20.5 59.4 16.2 46.7L12-67.8l10.7 31.1 9.1 26.2 7.7 22.2 6.6 19.1 5.8 16.7 5 14.6 4.5 13 4 11.5L69 97l3.2 9.3 3 8.5 2.6 7.7 2.5 7.1 2.2 6.4 2.1 6 1.9 5.5 1.8 5.1m-99.5-364.2 17.4 59.3 13.6 46.7 11.1 37.8L40-36.7l7.7 26.2 6.5 22.2 5.6 19.1 4.9 16.7 4.2 14.6 3.8 13 3.4 11.5L79.2 97l2.7 9.3 2.5 8.5 2.2 7.7 2.1 7 1.9 6.5 1.7 6 1.7 5.5 1.5 5.1M15.4-211.6l14.2 59.3 11.2 46.7 9 37.8 7.5 31.1 6.3 26.1 5.3 22.3 4.6 19.1 4 16.7L81 62.1l3.1 13 2.7 11.5L89.3 97l2.3 9.3 2 8.5 1.8 7.7 1.7 7 1.6 6.5 1.4 6 1.3 5.5 1.2 5.1M42-211.5l11 59.3 8.7 46.7 7.1 37.7 5.8 31.1 4.8 26.1 4.2 22.3 3.5 19.1 3.2 16.7L93 62.1 95.4 75l2.1 11.6 2 10.3 1.7 9.4 1.6 8.5 1.4 7.7 1.3 7 1.2 6.5 1.2 6 1 5.5.9 5.1M68.6-211.5l7.9 59.3 6.2 46.7 5 37.7 4.1 31.1 3.5 26.1 3 22.3 2.5 19.1 2.2 16.7 2 14.6 1.7 12.9 1.5 11.6 1.4 10.3 1.3 9.4 1.1 8.4 1 7.8 1 7 .8 6.5.8 6 .7 5.5.7 5.1M95.2-211.5l4.7 59.3 3.7 46.7 3 37.7 2.5 31.1 2.1 26.1 1.8 22.2 1.5 19.2 1.3 16.6 1.2 14.7 1 12.9.9 11.6.9 10.3.7 9.4.7 8.4.6 7.7.6 7.1.5 6.5.5 5.9.4 5.6.4 5.1m-2.5-364 1.6 59.2 1.2 46.7 1 37.7.9 31.1.7 26.1.6 22.2.5 19.2.4 16.6.4 14.7.3 12.9.4 11.5.2 10.4.3 9.3.2 8.5.2 7.7.2 7.1.2 6.5.1 5.9.2 5.5.1 5.2m16.9-364-1.6 59.2-1.2 46.7-1 37.7-.9 31.1-.7 26.1-.6 22.2-.5 19.2-.4 16.6L141 62l-.3 13-.4 11.5-.2 10.4-.3 9.3-.2 8.5-.2 7.7-.2 7.1-.2 6.4-.1 6-.2 5.5-.1 5.1m36.2-363.8-4.7 59.2-3.7 46.6-3 37.7-2.5 31.1-2.1 26.1-1.8 22.2-1.5 19.2-1.3 16.6L153 62l-1 13-1 11.5-.8 10.4-.7 9.3-.7 8.5-.6 7.7-.6 7.1-.5 6.4-.5 6-.4 5.5-.4 5.1m55.5-363.8-7.8 59.2-6.2 46.6-5 37.7-4.2 31.1-3.5 26.1-2.9 22.2-2.5 19.1-2.3 16.7L165 62l-1.7 13-1.6 11.5-1.3 10.4-1.3 9.3-1.1 8.5-1 7.7-1 7-.8 6.5-.8 6-.8 5.5-.6 5.1m74.8-363.7-11 59.1-8.6 46.6-7.1 37.7-5.7 31.1-4.9 26.1-4.1 22.2-3.6 19.1-3.1 16.7L177 62l-2.4 13-2.2 11.5-1.9 10.3-1.7 9.4-1.6 8.5-1.4 7.7-1.4 7-1.2 6.5-1.1 6-1 5.5-.9 5.1m94.1-363.7-14.1 59.1-11.2 46.7-9 37.6-7.4 31.1-6.3 26.1-5.3 22.2-4.5 19.1-4 16.7L189 62l-3.1 12.9-2.8 11.6-2.5 10.3-2.2 9.4-2 8.4-1.9 7.8-1.6 7-1.6 6.5-1.4 6-1.3 5.5-1.3 5.1m113.5-363.7L263.5-152l-13.6 46.6-11 37.6-9.1 31.1-7.6 26.1-6.5 22.2-5.6 19.1-4.9 16.7L201 62l-3.8 12.9-3.4 11.6-3 10.3-2.7 9.4-2.5 8.4-2.3 7.7-2 7.1-1.9 6.5-1.8 5.9-1.6 5.6-1.5 5.1m132.8-363.6L286.9-152l-16.1 46.6-13 37.6L247-36.7l-9 26.1-7.6 22.2-6.6 19.1-5.8 16.7-5 14.6-4.5 12.9-4 11.6-3.6 10.3-3.2 9.3-2.9 8.5-2.7 7.7-2.4 7.1-2.3 6.5-2 5.9-1.9 5.5-1.8 5.2m152-363.6L310.2-152l-18.6 46.6-15 37.6-12.4 31.1-10.3 26.1-8.9 22.2-7.6 19.1-6.6 16.6-5.9 14.7-5.1 12.9-4.6 11.5-4.1 10.4-3.8 9.3-3.3 8.5-3.1 7.7-2.8 7.1-2.6 6.4-2.4 6-2.2 5.5-2 5.1M360.2-211l-26.7 59-21 46.6-17 37.6-14 31.1-11.8 26.1-10 22.2-8.7 19.1-7.5 16.6-6.6 14.6-5.8 13-5.2 11.5-4.7 10.4-4.2 9.3-3.8 8.5-3.5 7.7-3.2 7.1-2.9 6.4-2.7 6-2.5 5.5-2.3 5.1M386.6-211l-29.8 59.1-23.5 46.5-19 37.6-15.6 31.1-13.2 26.1-11.2 22.2-9.6 19.1-8.4 16.6-7.4 14.6-6.5 13-5.9 11.5-5.2 10.4-4.7 9.3-4.3 8.5-3.9 7.7-3.5 7-3.3 6.5-3 6-2.8 5.5-2.6 5.1M413-211l-32.9 59.1-25.9 46.5-21 37.7-17.3 31-14.6 26.1L289 11.6l-10.7 19.1-9.3 16.6-8.1 14.6-7.2 13-6.5 11.5-5.7 10.4-5.3 9.3-4.7 8.5-4.3 7.7-3.9 7-3.6 6.5-3.3 6-3.1 5.5-2.9 5.1m229-363.3-36 59-28.4 46.5-23 37.7-18.9 31-16 26.1-13.5 22.1-11.7 19.2-10.1 16.6-9 14.6-7.9 13-7 11.5-6.3 10.3-5.7 9.4-5.2 8.4-4.7 7.8-4.3 7-4 6.5-3.6 6-3.4 5.5-3.1 5.1m248.2-363.3-39.1 59-30.9 46.5-25 37.7-20.6 31-17.3 26.1-14.7 22.1-12.7 19.2-11 16.6-9.7 14.6-8.6 12.9-7.6 11.6-6.9 10.3-6.2 9.4-5.6 8.4-5.1 7.7-4.7 7.1-4.3 6.5-4 5.9-3.6 5.6-3.4 5.1"
      vector-effect="non-scaling-stroke"
    />
  </g>
</svg>
