<svg xmlns="http://www.w3.org/2000/svg" width="270" height="150">
  <defs>
    <style>
      path {
        vector-effect: non-scaling-stroke;
      }
    </style>
  </defs>
  <g opacity=".4">
    <path
      fill="none"
      stroke="#101828"
      d="M20.9 68.8h228.2m-234.6.7h241m-248.3.7h255.6m-264 .8h272.4m-282.1.9h291.8M-22.5 73h315m-328.8 1.3h342.6m-359.5 1.5h376.4m-397.8 1.8h419.2m-447 2.4h474.8m-512.8 3.1h550.8m-606.2 4.4h661.6m-751.4 6.9h841.2m-1016.7 13H731.1M34.6 68.2l-3.9.4-4.2.5-4.7.5-5.1.6-5.7.6-6.4.7-7.2.7-8.2.8-9.4.9L-31 75l-12.8 1.2-15.3 1.4-18.6 1.7-23.2 2.1-30 2.6-40.4 3.5-57.8 4.8-90.6 7.4-166.7 13.2-432.9 33.6"
      vector-effect="non-scaling-stroke"
    />
    <path
      fill="none"
      stroke="#101828"
      d="m42.7 68.2-3.6.4-3.9.5-4.3.5-4.8.6-5.2.6-5.9.7-6.6.7-7.5.8-8.6.9-10 1.1-11.8 1.2-14 1.4-17.1 1.7-21.4 2.1-27.6 2.6-37.2 3.5-53.1 4.8-83.4 7.4-153.4 13.2-398.3 33.6"
      vector-effect="non-scaling-stroke"
    />
    <path
      fill="none"
      stroke="#101828"
      d="m50.7 68.2-3.3.4-3.5.5-4 .5-4.3.6-4.8.6-5.4.7-6 .7-6.9.8-7.8.9-9.2 1.1-10.7 1.2-12.8 1.4-15.6 1.7-19.6 2.1-25.1 2.6-34 3.5-48.5 4.8-76.2 7.4-140 13.2-363.7 33.6"
      vector-effect="non-scaling-stroke"
    />
    <path
      fill="none"
      stroke="#101828"
      d="m58.7 68.2-2.9.4-3.3.5-3.5.5-3.9.6-4.4.6-4.8.7-5.5.7-6.2.8-7.1.9L8.8 75l-9.7 1.2-11.6 1.4-14.1 1.7-17.7 2.1-22.8 2.6-30.7 3.5-43.9 4.8-68.9 7.4-126.6 13.2-329.1 33.6M66.8 68.2l-2.7.4-2.9.5-3.2.5-3.5.6-3.8.6-4.4.7-4.9.7-5.5.8-6.4.9-7.4 1.1-8.7 1.2L3 77.6l-12.6 1.7-15.8 2.1-20.4 2.6-27.5 3.5-39.3 4.8-61.6 7.4-113.3 13.2-294.5 33.6M74.8 68.2l-2.4.4-2.5.5-2.8.5-3.1.6-3.4.6-3.9.7-4.3.7-4.9.8-5.6.9-6.5 1.1-7.7 1.2-9.1 1.4-11.2 1.7-13.9 2.1-18 2.6-24.3 3.5-34.6 4.8-54.4 7.4-100 13.2-259.8 33.6M82.8 68.2l-2 .4-2.2.5-2.4.5-2.7.6-3 .6-3.3.7-3.8.7-4.2.8-4.9.9-5.6 1.1-6.7 1.2-7.9 1.4-9.7 1.7-12.1 2.1L-3.3 84l-21 3.5-30 4.8-47.2 7.4-86.6 13.2-225.2 33.6M90.8 68.2l-1.7.4-1.8.5-2.1.5-2.3.6-2.5.6-2.8.7-3.2.7-3.5.8-4.2.9-4.8 1.1-5.6 1.2-6.7 1.4-8.2 1.7-10.2 2.1L18 84 .2 87.5l-25.4 4.8-39.9 7.4-73.3 13.2-190.5 33.6M98.9 68.2l-1.4.4-1.6.5-1.6.5-1.9.6-2.1.6-2.3.7-2.5.7-3 .8-3.4.9-3.9 1.1-4.6 1.2-5.5 1.4-6.7 1.7-8.3 2.1L39.3 84l-14.6 3.5-20.8 4.8-32.6 7.4-60 13.2-155.9 33.6m351.5-78.3-1.1.4-1.2.5-1.3.5-1.4.6-1.6.6-1.8.7-2 .7-2.3.8-2.6.9-3.1 1.1-3.6 1.2-4.2 1.4-5.2 1.7-6.6 2.1-8.3 2.6-11.4 3.5-16.1 4.8-25.4 7.4-46.7 13.2-121.2 33.6m275.1-78.3-.8.4-.8.5-.9.5-1.1.6-1.1.6-1.3.7-1.4.7-1.7.8-1.8.9-2.2 1.1-2.6 1.2-3 1.4-3.7 1.7-4.7 2.1-6 2.6-8.1 3.5-11.5 4.8-18.1 7.4-33.4 13.2-86.6 33.6M123 68.2l-.5.4-.5.5-.6.5-.6.6-.7.6-.8.7-.8.7-1 .8-1.1.9-1.3 1.1-1.6 1.2-1.8 1.4-2.2 1.7-2.8 2.1-3.6 2.6-4.9 3.5-6.9 4.8-10.9 7.4-20 13.2-51.9 33.6M131 68.2l-.2.4-.1.5-.2.5-.2.6-.3.6-.2.7-.3.7-.3.8-.4.9-.4 1.1-.6 1.2-.6 1.4-.7 1.7-.9 2.1-1.2 2.6-1.7 3.5-2.3 4.8-3.6 7.4-6.7 13.2-17.3 33.6M139 68.2l.2.4.1.5.2.5.2.6.3.6.2.7.3.7.3.8.4.9.4 1.1.6 1.2.6 1.4.7 1.7.9 2.1 1.2 2.6 1.7 3.5 2.3 4.8 3.6 7.4 6.7 13.2 17.3 33.6M147 68.2l.5.4.5.5.6.5.6.6.7.6.8.7.8.7 1 .8 1.1.9 1.3 1.1 1.6 1.2 1.8 1.4 2.2 1.7 2.8 2.1 3.6 2.6 4.9 3.5 6.9 4.8 10.9 7.4 20 13.2 51.9 33.6M155.1 68.2l.8.4.8.5.9.5 1.1.6 1.1.6 1.3.7 1.4.7 1.7.8 1.8.9 2.2 1.1 2.6 1.2 3 1.4 3.7 1.7 4.7 2.1 6 2.6 8.1 3.5 11.5 4.8 18.1 7.4 33.4 13.2 86.6 33.6M163.1 68.2l1.1.4 1.2.5 1.3.5 1.4.6 1.6.6 1.8.7 2 .7 2.3.8 2.6.9 3.1 1.1 3.6 1.2 4.2 1.4 5.2 1.7 6.6 2.1 8.3 2.6 11.4 3.5 16.1 4.8 25.4 7.4 46.7 13.2 121.2 33.6M171.1 68.2l1.4.4 1.6.5 1.6.5 1.9.6 2.1.6 2.3.7 2.5.7 3 .8 3.4.9 3.9 1.1 4.6 1.2 5.5 1.4 6.7 1.7 8.3 2.1 10.8 2.6 14.6 3.5 20.8 4.8 32.6 7.4 60 13.2 155.9 33.6M179.2 68.2l1.7.4 1.8.5 2.1.5 2.3.6 2.5.6 2.8.7 3.2.7 3.5.8 4.2.9 4.8 1.1 5.6 1.2 6.7 1.4 8.2 1.7 10.2 2.1L252 84l17.8 3.5 25.4 4.8 39.9 7.4 73.3 13.2 190.5 33.6M187.2 68.2l2 .4 2.2.5 2.4.5 2.7.6 3 .6 3.3.7 3.8.7 4.2.8 4.9.9 5.6 1.1 6.7 1.2 7.9 1.4 9.7 1.7 12.1 2.1 15.6 2.6 21 3.5 30 4.8 47.2 7.4 86.6 13.2 225.2 33.6M195.2 68.2l2.4.4 2.5.5 2.8.5 3.1.6 3.4.6 3.9.7 4.3.7 4.9.8 5.6.9 6.5 1.1 7.7 1.2 9.1 1.4 11.2 1.7 13.9 2.1 18 2.6 24.3 3.5 34.6 4.8 54.4 7.4 100 13.2 259.8 33.6M203.2 68.2l2.7.4 2.9.5 3.2.5 3.5.6 3.8.6 4.4.7 4.9.7 5.5.8 6.4.9 7.4 1.1 8.7 1.2 10.4 1.4 12.6 1.7 15.8 2.1 20.4 2.6 27.5 3.5 39.3 4.8 61.6 7.4 113.3 13.2L852 146.5M211.3 68.2l2.9.4 3.3.5 3.5.5 3.9.6 4.4.6 4.8.7 5.5.7 6.2.8 7.1.9 8.3 1.1 9.7 1.2 11.6 1.4 14.1 1.7 17.7 2.1 22.8 2.6 30.7 3.5 43.9 4.8 68.9 7.4 126.6 13.2 329.1 33.6"
      vector-effect="non-scaling-stroke"
    />
    <path
      fill="none"
      stroke="#101828"
      d="m219.3 68.2 3.3.4 3.5.5 4 .5 4.3.6 4.8.6 5.4.7 6 .7 6.9.8 7.8.9 9.2 1.1 10.7 1.2 12.8 1.4 15.6 1.7 19.6 2.1 25.1 2.6 34 3.5 48.5 4.8 76.2 7.4 140 13.2 363.7 33.6"
      vector-effect="non-scaling-stroke"
    />
    <path
      fill="none"
      stroke="#101828"
      d="m227.3 68.2 3.6.4 3.9.5 4.3.5 4.8.6 5.2.6 5.9.7 6.6.7 7.5.8 8.6.9 10 1.1 11.8 1.2 14 1.4 17.1 1.7 21.4 2.1 27.6 2.6 37.2 3.5 53.1 4.8 83.4 7.4 153.4 13.2 398.3 33.6"
      vector-effect="non-scaling-stroke"
    />
    <path
      fill="none"
      stroke="#101828"
      d="m235.4 68.2 3.9.4 4.2.5 4.7.5 5.1.6 5.7.6 6.4.7 7.2.7 8.2.8 9.4.9L301 75l12.8 1.2 15.3 1.4 18.6 1.7 23.2 2.1 30 2.6 40.4 3.5 57.8 4.8 90.6 7.4 166.7 13.2 432.9 33.6"
      vector-effect="non-scaling-stroke"
    />
  </g>
</svg>
